<?xml version="1.0" standalone="no"?>
<!DOCTYPE svg PUBLIC "-//W3C//DTD SVG 20010904//EN"
 "http://www.w3.org/TR/2001/REC-SVG-20010904/DTD/svg10.dtd">
<svg version="1.0" xmlns="http://www.w3.org/2000/svg"
 width="1024.000000pt" height="1024.000000pt" viewBox="0 0 1024.000000 1024.000000"
 preserveAspectRatio="xMidYMid meet">
<metadata>
Created by potrace 1.14, written by Peter Selinger 2001-2017
</metadata>
<g transform="translate(0.000000,1024.000000) scale(0.100000,-0.100000)"
fill="#000000" stroke="none">
<path d="M5695 9030 c-4 -6 -10 -8 -15 -5 -12 7 -30 -19 -36 -52 -3 -15 -12
-62 -21 -103 -8 -41 -17 -86 -19 -100 -3 -14 -7 -33 -10 -42 -3 -10 -7 -28
-10 -40 -2 -13 -17 -88 -34 -168 -17 -80 -48 -233 -71 -340 -22 -107 -42 -204
-45 -215 -10 -41 -26 -121 -29 -140 -1 -11 -17 -83 -33 -160 -17 -77 -43 -198
-57 -270 -15 -71 -29 -138 -31 -147 -9 -39 -29 -137 -38 -183 -5 -26 -37 -175
-41 -195 -12 -51 -47 -221 -51 -250 -6 -37 -23 -65 -25 -39 0 7 -2 21 -4 29
-6 26 -95 394 -102 420 -3 14 -7 30 -9 36 -6 31 -86 363 -95 394 -5 19 -25
100 -43 180 -19 80 -62 258 -96 395 -125 516 -150 621 -155 640 -6 28 -34 143
-45 185 -5 19 -16 62 -23 95 l-14 60 -1326 3 -1325 2 -32 -132 c-18 -73 -43
-178 -56 -233 -14 -55 -27 -110 -29 -122 -7 -29 -81 -336 -155 -640 -33 -133
-62 -254 -65 -270 -7 -35 -10 -43 -18 -68 -3 -11 -8 -31 -11 -45 -9 -44 -15
-69 -31 -133 -10 -34 -18 -69 -19 -77 -1 -8 -5 -26 -9 -40 -18 -69 -137 -559
-141 -587 -4 -18 -10 -43 -16 -57 -5 -15 -7 -26 -5 -26 2 0 0 -11 -5 -26 -6
-14 -12 -37 -15 -52 -3 -15 -11 -51 -20 -81 -8 -30 -12 -58 -9 -62 2 -4 0 -10
-5 -13 -4 -3 -12 -25 -16 -48 -4 -24 -9 -47 -10 -53 -6 -22 -98 -399 -136
-555 -22 -91 -53 -219 -69 -285 -64 -264 -102 -421 -105 -435 -2 -8 -4 -15 -5
-15 -1 0 -3 -10 -6 -23 -3 -19 -40 -175 -70 -294 -2 -10 -6 -26 -8 -35 -18
-77 -58 -245 -66 -273 -11 -41 -100 -405 -106 -435 -2 -12 -33 -142 -69 -290
-81 -331 -126 -515 -130 -535 -4 -19 -57 -237 -96 -396 -16 -66 -31 -129 -33
-140 -2 -10 -13 -55 -25 -99 -11 -44 -22 -91 -25 -105 -2 -14 -7 -32 -10 -40
-3 -8 -13 -46 -21 -85 -9 -38 -17 -77 -20 -85 -2 -8 -17 -73 -35 -145 -17 -71
-56 -231 -86 -355 -30 -124 -64 -261 -74 -305 -11 -44 -22 -90 -26 -103 l-6
-22 1337 2 c1180 3 1338 5 1341 18 1 8 23 101 48 205 26 105 55 226 65 270 21
89 163 686 187 780 8 33 16 69 19 80 4 18 80 334 91 380 3 11 7 31 10 45 3 14
8 34 11 45 4 11 8 27 9 35 1 8 7 30 12 48 6 18 11 35 11 37 -1 19 76 325 81
325 4 0 10 -17 13 -37 3 -21 24 -112 47 -203 34 -137 69 -288 85 -360 2 -8 15
-62 30 -120 15 -58 29 -116 31 -130 3 -14 7 -33 10 -42 3 -9 6 -25 8 -35 2
-10 23 -94 46 -188 46 -185 49 -198 56 -235 3 -14 7 -33 10 -42 3 -10 7 -30
10 -44 17 -91 62 -231 99 -304 112 -219 313 -385 575 -474 171 -57 144 -56
1213 -56 780 0 984 3 984 13 1 6 29 127 63 267 33 140 63 262 65 271 2 8 10
44 19 80 26 107 95 397 122 514 14 61 28 117 31 125 3 8 7 22 8 30 1 8 12 56
24 105 12 50 31 128 42 175 11 47 25 105 32 130 6 25 12 47 12 50 1 3 4 19 8
35 4 17 9 39 11 50 3 11 17 70 31 130 15 61 28 117 30 125 2 8 12 51 24 95 11
44 22 91 25 105 3 14 9 38 14 55 9 33 1 60 77 -260 63 -264 95 -399 102 -425
3 -14 7 -29 9 -35 1 -5 4 -21 7 -35 3 -14 21 -88 40 -165 19 -77 47 -192 62
-255 15 -63 43 -178 62 -255 19 -77 36 -149 38 -160 17 -94 72 -221 138 -318
136 -200 403 -363 682 -416 29 -6 456 -10 1038 -11 l987 0 -5 22 c-16 69 -148
612 -161 663 -8 33 -17 71 -20 85 -3 14 -18 77 -34 140 -16 63 -31 126 -34
140 -3 14 -12 52 -20 85 -15 60 -44 183 -52 217 -2 10 -6 27 -9 38 -3 11 -7
28 -9 37 -3 10 -16 65 -31 123 -14 58 -28 114 -30 126 -3 11 -32 133 -65 270
-34 137 -77 314 -96 394 -19 80 -39 163 -45 185 -5 22 -11 49 -14 60 -2 11
-13 56 -24 100 -21 83 -61 248 -137 565 -24 102 -48 201 -54 220 -10 38 -21
86 -26 110 -2 8 -8 33 -13 55 -13 48 -111 452 -116 479 -6 28 -80 330 -136
556 -26 107 -50 206 -53 220 -3 14 -8 36 -11 50 -3 14 -8 36 -11 50 -2 14 -9
36 -14 50 -4 14 -12 43 -16 65 -9 51 -9 51 -24 105 -7 25 -13 52 -15 60 -2 8
-8 35 -15 60 -7 25 -14 55 -16 68 -3 13 -16 69 -30 125 -42 169 -53 213 -58
238 -3 13 -19 80 -36 149 -49 198 -158 647 -165 680 -7 33 -36 153 -70 295
-21 83 -38 157 -40 165 -2 8 -15 62 -30 120 -14 58 -28 112 -30 120 -1 8 -13
56 -24 105 -12 50 -26 108 -32 130 -7 22 -13 49 -14 60 -2 11 -15 68 -30 128
l-27 107 -1324 0 c-885 0 -1325 -3 -1329 -10z"/>
</g>
</svg>
